<?xml version="1.0" encoding="utf-8"?>
<!-- Generator: $$$/GeneralStr/196=Adobe Illustrator 27.6.0, SVG Export Plug-In . SVG Version: 6.00 Build 0)  -->
<svg version="1.1" id="Calque_1" xmlns="http://www.w3.org/2000/svg" xmlns:xlink="http://www.w3.org/1999/xlink" x="0px" y="0px"
	 viewBox="0 0 48 34.3" style="enable-background:new 0 0 48 34.3;" xml:space="preserve">
<style type="text/css">
	.st0{fill:#F83939;}
	.st1{enable-background:new    ;}
	.st2{fill:#FFFFFF;}
</style>
<g>
	<path id="Tracé_1" class="st0" d="M16.2,33.4c1,0,2,0.1,2.9,0.1c0.9,0,1.8,0,2.5,0H24c2.7,0,5.2,0,7.6-0.1c2-0.1,4-0.2,6-0.3
		c1.4-0.1,2.9-0.2,4.3-0.6c1-0.3,1.9-0.8,2.6-1.5c0.7-0.7,1.2-1.6,1.5-2.6c0.3-1.1,0.4-2.2,0.5-3.3c0.1-1.3,0.2-2.5,0.3-3.7
		c0.1-1.4,0.1-2.8,0.1-4.3s0-2.9-0.1-4.3c-0.1-1.2-0.2-2.4-0.3-3.7c-0.1-1.1-0.3-2.2-0.5-3.3c-0.3-1-0.8-1.9-1.5-2.6
		c-0.7-0.7-1.6-1.3-2.6-1.5c-1.4-0.3-2.8-0.5-4.3-0.6c-2-0.1-4-0.2-6-0.3c-2.4-0.1-4.9-0.1-7.6-0.1c-2.7,0-5.2,0-7.6,0.1
		c-2,0.1-4,0.2-6,0.3C9,1.3,7.6,1.5,6.2,1.8c-1,0.3-1.9,0.8-2.6,1.5C2.9,4.1,2.4,5,2.1,5.9C1.9,7,1.7,8.1,1.6,9.2
		c-0.1,1.3-0.2,2.5-0.3,3.7c-0.1,1.4-0.1,2.8-0.1,4.3C1.9,17.8,16.5,32.7,16.2,33.4"/>
	<path id="Tracé_2" class="st0" d="M31.8,33.4c-1,0-2,0.1-2.9,0.1c-0.9,0-1.8,0-2.5,0H24c-2.7,0-5.2,0-7.6-0.1c-2-0.1-4-0.2-6-0.3
		C9,33,7.6,32.8,6.2,32.5c-1-0.3-1.9-0.8-2.6-1.5c-0.7-0.7-1.2-1.6-1.5-2.6c-0.3-1.1-0.4-2.2-0.5-3.3c-0.1-1.3-0.2-2.5-0.3-3.7
		c-0.1-1.4-0.1-2.8-0.1-4.3c0-1.4,0-2.9,0.1-4.3c0.1-1.2,0.2-2.4,0.3-3.7C1.7,8.1,1.8,7,2.1,5.9C2.4,5,2.9,4,3.6,3.3
		c0.7-0.7,1.6-1.3,2.6-1.5C7.6,1.5,9,1.3,10.4,1.2c2-0.1,4-0.2,6-0.3c2.4-0.1,4.9-0.1,7.6-0.1c2.7,0,5.2,0,7.6,0.1
		c2,0.1,4,0.2,6,0.3c1.4,0.1,2.9,0.2,4.3,0.6c1,0.3,1.9,0.8,2.6,1.5c0.7,0.7,1.2,1.6,1.5,2.6c0.3,1.1,0.4,2.2,0.5,3.3
		c0.1,1.3,0.2,2.5,0.3,3.7c0.1,1.4,0.1,2.8,0.1,4.3v1C46.1,17.8,31.5,32.7,31.8,33.4 M19.4,24.1l11.9-7l-11.9-7V24.1z"/>
	<g class="st1">
		<path class="st2" d="M12.2,19.6v-3.5h23.1v4.8c0,1.1-0.1,2-0.3,2.8c-0.2,0.8-0.6,1.4-1.2,1.9c-0.5,0.5-1.2,0.8-2.1,1
			s-1.9,0.3-3.1,0.3c-1.2,0-2.3-0.1-3.2-0.3c-0.9-0.2-1.6-0.5-2.1-1c-0.5-0.5-0.9-1.1-1.2-1.8c-0.2-0.8-0.3-1.7-0.3-2.8v-1.4H12.2z
			 M25,20.7c0,0.5,0.1,1,0.2,1.4c0.1,0.4,0.3,0.6,0.5,0.8c0.3,0.2,0.6,0.3,1.1,0.4c0.5,0.1,1,0.1,1.7,0.1c0.7,0,1.3,0,1.7-0.1
			c0.5-0.1,0.8-0.2,1.1-0.4c0.3-0.2,0.4-0.5,0.5-0.8c0.1-0.4,0.2-0.8,0.2-1.4v-1.1h-7V20.7z"/>
	</g>
</g>
</svg>
