<svg xmlns="http://www.w3.org/2000/svg" width="48" height="34.286" viewBox="0 0 48 34.286">
  <g id="Groupe_21" data-name="Groupe 21" transform="translate(-58 573)">
    <path id="youtube_activity_FILL0_wght400_GRAD0_opsz48" d="M95.84-765.837q1.62.061,3.09.092t2.61.031H104q4.26,0,7.98-.122,3.18-.122,6.27-.337a26.375,26.375,0,0,0,4.47-.582,5.911,5.911,0,0,0,2.7-1.592,6.089,6.089,0,0,0,1.56-2.755,24.178,24.178,0,0,0,.57-3.428q.21-2.02.33-3.857.12-2.2.12-4.469t-.12-4.469q-.12-1.837-.33-3.857a24.177,24.177,0,0,0-.57-3.429,6.088,6.088,0,0,0-1.56-2.755,5.913,5.913,0,0,0-2.7-1.592,26.393,26.393,0,0,0-4.47-.581q-3.09-.214-6.27-.337Q108.26-800,104-800t-7.98.123q-3.18.122-6.27.337a26.394,26.394,0,0,0-4.47.581,5.914,5.914,0,0,0-2.7,1.592,6.087,6.087,0,0,0-1.56,2.755,24.181,24.181,0,0,0-.57,3.429q-.21,2.021-.33,3.857-.12,2.2-.12,4.469C80.76-782.143,96.16-766.571,95.84-765.837Z" transform="translate(-22 227)" fill="#f83939"/>
    <path id="youtube_activity_FILL0_wght400_GRAD0_opsz48-2" data-name="youtube_activity_FILL0_wght400_GRAD0_opsz48" d="M112.16-765.837q-1.62.061-3.09.092t-2.61.031H104q-4.26,0-7.98-.122-3.18-.122-6.27-.337a26.375,26.375,0,0,1-4.47-.582,5.911,5.911,0,0,1-2.7-1.592,6.088,6.088,0,0,1-1.56-2.755,24.182,24.182,0,0,1-.57-3.428q-.21-2.02-.33-3.857-.12-2.2-.12-4.469t.12-4.469q.12-1.837.33-3.857a24.181,24.181,0,0,1,.57-3.429,6.087,6.087,0,0,1,1.56-2.755,5.914,5.914,0,0,1,2.7-1.592,26.394,26.394,0,0,1,4.47-.581q3.09-.214,6.27-.337Q99.74-800,104-800t7.98.123q3.18.122,6.27.337a26.394,26.394,0,0,1,4.47.581,5.913,5.913,0,0,1,2.7,1.592,6.088,6.088,0,0,1,1.56,2.755,24.177,24.177,0,0,1,.57,3.429q.21,2.021.33,3.857.12,2.2.12,4.469v1.041C127.24-782.143,111.84-766.571,112.16-765.837ZM99.2-775.51l12.48-7.347L99.2-790.2Z" transform="translate(-22 227)" fill="#f83939"/>
    <path id="Polygone_2" data-name="Polygone 2" d="M8.5,0,17,15H0Z" transform="translate(90.424 -564.357) rotate(90)" fill="#fff"/>
  </g>
</svg>
