<svg xmlns="http://www.w3.org/2000/svg" width="138" height="29" viewBox="0 0 138 29">
  <g id="Groupe_20" data-name="Groupe 20" transform="translate(-186 564)">
    <g id="Groupe_19" data-name="Groupe 19">
      <g id="Groupe_17" data-name="Groupe 17" transform="translate(0 2)">
        <text id="PierreGoudet" transform="translate(218 -542)" fill="#fff" font-size="25" font-family="AlternateGotNo2D, Alternate Gothic No2 D"><tspan x="0" y="0">P</tspan><tspan y="0" font-size="24">ierre</tspan><tspan y="0">G</tspan><tspan y="0" font-size="24">oudet</tspan></text>
      </g>
      <g id="Groupe_18" data-name="Groupe 18" transform="translate(128 15)">
        <path id="youtube_activity_FILL0_wght400_GRAD0_opsz48" d="M89.24-780.072q.945.036,1.8.054t1.522.018H94q2.485,0,4.655-.071,1.855-.072,3.658-.2a15.388,15.388,0,0,0,2.607-.339,3.448,3.448,0,0,0,1.575-.929,3.552,3.552,0,0,0,.91-1.607,14.1,14.1,0,0,0,.332-2q.123-1.179.193-2.25.07-1.286.07-2.607t-.07-2.607q-.07-1.071-.193-2.25a14.1,14.1,0,0,0-.332-2,3.551,3.551,0,0,0-.91-1.607,3.449,3.449,0,0,0-1.575-.929,15.4,15.4,0,0,0-2.607-.339q-1.8-.125-3.658-.2Q96.485-800,94-800t-4.655.071q-1.855.072-3.658.2a15.4,15.4,0,0,0-2.607.339,3.449,3.449,0,0,0-1.575.929,3.551,3.551,0,0,0-.91,1.607,14.106,14.106,0,0,0-.332,2q-.123,1.179-.192,2.25Q80-791.322,80-790C80.443-789.583,89.427-780.5,89.24-780.072Z" transform="translate(-22 227)" fill="#f83939"/>
        <path id="youtube_activity_FILL0_wght400_GRAD0_opsz48-2" data-name="youtube_activity_FILL0_wght400_GRAD0_opsz48" d="M98.76-780.072q-.945.036-1.8.054T95.435-780H94q-2.485,0-4.655-.071-1.855-.072-3.658-.2a15.389,15.389,0,0,1-2.607-.339,3.448,3.448,0,0,1-1.575-.929,3.551,3.551,0,0,1-.91-1.607,14.107,14.107,0,0,1-.332-2q-.123-1.179-.192-2.25Q80-788.679,80-790t.07-2.607q.07-1.071.192-2.25a14.106,14.106,0,0,1,.332-2,3.551,3.551,0,0,1,.91-1.607,3.449,3.449,0,0,1,1.575-.929,15.4,15.4,0,0,1,2.607-.339q1.8-.125,3.658-.2Q91.515-800,94-800t4.655.071q1.855.072,3.658.2a15.4,15.4,0,0,1,2.607.339,3.449,3.449,0,0,1,1.575.929,3.551,3.551,0,0,1,.91,1.607,14.1,14.1,0,0,1,.332,2q.123,1.179.193,2.25.07,1.286.07,2.607v.607C107.557-789.583,98.573-780.5,98.76-780.072Zm-7.56-5.643L98.48-790l-7.28-4.286Z" transform="translate(-22 227)" fill="#f83939"/>
        <path id="Polygone_2" data-name="Polygone 2" d="M4,0,8,7H0Z" transform="translate(75.973 -567) rotate(90)" fill="#fff"/>
      </g>
    </g>
    <text id="FR" transform="translate(312 -555)" fill="#fff" font-size="10" font-family="Roboto-Light, Roboto" font-weight="300" opacity="0.6"><tspan x="0" y="0">FR</tspan></text>
  </g>
</svg>
