<?xml version="1.0" encoding="utf-8"?>
<!-- Generator: $$$/GeneralStr/196=Adobe Illustrator 27.6.0, SVG Export Plug-In . SVG Version: 6.00 Build 0)  -->
<svg version="1.1" id="Calque_1" xmlns="http://www.w3.org/2000/svg" xmlns:xlink="http://www.w3.org/1999/xlink" x="0px" y="0px"
	 viewBox="0 0 138 29" style="enable-background:new 0 0 138 29;" xml:space="preserve">
<style type="text/css">
	.st0{fill:#FFFFFF;}
	.st1{font-family:'AlternateGotNo2D';}
	.st2{font-size:25px;}
	.st3{font-size:24px;}
	.st4{fill:#F83939;}
	.st5{font-size:21.1783px;}
	.st6{font-family:'Roboto-Light';}
	.st7{font-size:10px;}
</style>
<g id="Groupe_20" transform="translate(-186 564)">
	<g id="Groupe_19">
		<g id="Groupe_17" transform="translate(0 2)">
			<text transform="matrix(1 0 0 1 218 -542)" class="st0 st1 st2">P</text>
			<text transform="matrix(1 0 0 1 227.6497 -542)" class="st0 st1 st3">ierre</text>
			<text transform="matrix(1 0 0 1 260.0249 -542)" class="st0 st1 st2">G</text>
			<text transform="matrix(1 0 0 1 269.9996 -542)" class="st0 st1 st3">oudet</text>
		</g>
		<g id="Groupe_18" transform="translate(128 15)">
			<path id="youtube_activity_FILL0_wght400_GRAD0_opsz48" class="st4" d="M67.2-553.1c0.6,0,1.2,0,1.8,0.1c0.6,0,1.1,0,1.5,0H72
				c1.7,0,3.2,0,4.7-0.1c1.2,0,2.5-0.1,3.7-0.2c0.9,0,1.7-0.2,2.6-0.3c0.6-0.2,1.1-0.5,1.6-0.9c0.4-0.4,0.8-1,0.9-1.6
				c0.2-0.7,0.3-1.3,0.3-2c0.1-0.8,0.1-1.5,0.2-2.2c0-0.9,0.1-1.7,0.1-2.6c0-0.9,0-1.7-0.1-2.6c0-0.7-0.1-1.5-0.2-2.2
				c-0.1-0.7-0.2-1.3-0.3-2c-0.2-0.6-0.5-1.2-0.9-1.6c-0.4-0.4-1-0.8-1.6-0.9c-0.9-0.2-1.7-0.3-2.6-0.3c-1.2-0.1-2.4-0.2-3.7-0.2
				c-1.4,0-3-0.1-4.7-0.1s-3.2,0-4.7,0.1c-1.2,0-2.5,0.1-3.7,0.2c-0.9,0-1.7,0.2-2.6,0.3c-0.6,0.2-1.1,0.5-1.6,0.9
				c-0.4,0.4-0.8,1-0.9,1.6c-0.2,0.7-0.3,1.3-0.3,2c-0.1,0.8-0.1,1.5-0.2,2.2c0,0.9-0.1,1.7-0.1,2.6
				C58.4-562.6,67.4-553.5,67.2-553.1z"/>
			<path id="youtube_activity_FILL0_wght400_GRAD0_opsz48-2" class="st4" d="M76.8-553.1c-0.6,0-1.2,0-1.8,0.1c-0.6,0-1.1,0-1.5,0
				H72c-1.7,0-3.2,0-4.7-0.1c-1.2,0-2.5-0.1-3.7-0.2c-0.9,0-1.7-0.2-2.6-0.3c-0.6-0.2-1.1-0.5-1.6-0.9c-0.4-0.4-0.8-1-0.9-1.6
				c-0.2-0.7-0.3-1.3-0.3-2c-0.1-0.8-0.1-1.5-0.2-2.2c0-0.9-0.1-1.7-0.1-2.6s0-1.7,0.1-2.6c0-0.7,0.1-1.5,0.2-2.2
				c0.1-0.7,0.2-1.3,0.3-2c0.2-0.6,0.5-1.2,0.9-1.6c0.4-0.4,1-0.8,1.6-0.9c0.9-0.2,1.7-0.3,2.6-0.3c1.2-0.1,2.4-0.2,3.7-0.2
				c1.4,0,3-0.1,4.7-0.1s3.2,0,4.7,0.1c1.2,0,2.5,0.1,3.7,0.2c0.9,0,1.7,0.2,2.6,0.3c0.6,0.2,1.1,0.5,1.6,0.9c0.4,0.4,0.8,1,0.9,1.6
				c0.2,0.7,0.3,1.3,0.3,2c0.1,0.8,0.1,1.5,0.2,2.2c0,0.9,0.1,1.7,0.1,2.6v0.6C85.6-562.6,76.6-553.5,76.8-553.1z M69.2-558.7
				l7.3-4.3l-7.3-4.3V-558.7z"/>
			<text transform="matrix(6.123234e-17 1 -1 6.123234e-17 64.3483 -563.6183)" class="st0 st1 st5">P</text>
			<text transform="matrix(-1.836970e-16 -1 1 -1.836970e-16 78.4072 -562.2427)" class="st0 st1 st5">P</text>
		</g>
	</g>
	<text transform="matrix(1 0 0 1 312 -555)" class="st0 st6 st7">FR</text>
</g>
</svg>
